<svg viewBox="0 0 256 256" fill="none" xmlns="http://www.w3.org/2000/svg">
<path d="M7 164.5C3.9625 164.5 1.5 162.037 1.5 159V157.5C1.5 154.463 3.9625 152 7 152H41V97.9928C41 85.184 46.2513 69.6577 54.7235 57.335C63.204 44.9997 74.8195 36 87.4873 36C89.2367 36 90.9637 36.1716 92.6633 36.5H207.625C222.961 36.5 234.662 43.2023 242.542 53.3688C250.432 63.5478 254.5 77.2158 254.5 91.125V142.25C254.5 153.51 245.063 164.5 233.125 164.5H187.75V246.708C187.75 246.708 187.75 251.5 177.276 251.5H157.724C147.25 251.5 147.25 246.708 147.25 246.708V164.5H7Z" fill="#F84F46"/>
<path d="M110.872 46.5H236C229.971 41.2368 220.3 36.5 210.126 36.5H92.6633C99.2451 37.7716 105.415 41.3937 110.872 46.5Z" fill="#F4ADA3"/>
<path d="M160.75 102C156.884 102 153.75 98.866 153.75 95C153.75 91.134 156.884 88 160.75 88C164.616 88 167.75 91.134 167.75 95C167.75 98.866 164.616 102 160.75 102Z" fill="#F4ADA3"/>
<path d="M126.75 101.092V152H47.75V101.092C47.75 88.8535 51.512 74.9232 58.3242 64.0655C65.138 53.2047 74.944 45.5 87.0175 45.5C99.0928 45.5 109.016 53.207 115.945 64.0687C122.873 74.9272 126.75 88.8565 126.75 101.092Z" fill="#F4ADA3"/>
<path d="M166.966 33.4565V91.7784C165.8 89.5335 163.454 88 160.75 88C157.804 88 155.283 89.82 154.25 92.3969V9.2105C154.25 6.33 156.57 4 159.426 4H183.074C185.93 4 188.25 6.33 188.25 9.2105V28.246C188.25 31.1265 185.93 33.4565 183.074 33.4565H166.966Z" fill="#98332D"/>
<path d="M101.969 152H126.75V164.5H101.969C99.5008 164.5 97.5 162.038 97.5 159V157.5C97.5 154.462 99.5008 152 101.969 152Z" fill="#98332D"/>
<path d="M187.75 164.5H147.25V189.335L187.75 202.25V164.5Z" fill="#98332D"/>
</svg>
