<svg viewBox="0 0 128 128" fill="none" xmlns="http://www.w3.org/2000/svg">
<path d="M118.596 48.1701C119.097 47.8618 117.745 42.583 114.357 37.1377C111.424 32.5719 109.579 30.4593 108.337 29.5704C108.186 29.3984 107.981 29.2775 107.727 29.2047C107.005 28.8639 106.53 29.0054 106.141 29.2194C103.099 29.8079 97.691 32.995 92.1963 37.6433C90.4386 39.1302 88.6594 40.4319 87.0294 41.6239C85.1045 43.0317 83.3883 44.2872 82.1623 45.5154C77.1161 41.3286 70.2492 38.7259 63.3036 38.8213C56.7737 38.911 50.5622 41.4968 45.9174 45.4313C44.7027 44.2422 43.0364 43.025 41.1754 41.6653C39.5474 40.4759 37.7702 39.1772 36.0151 37.6934C30.5315 33.0571 25.1321 29.8801 22.0903 29.2943C21.7014 29.0805 21.2265 28.9384 20.5027 29.2798C20.2455 29.3537 20.0374 29.477 19.8845 29.6522C18.641 30.5454 16.7942 32.6618 13.8578 37.2253C10.4605 42.6767 9.10011 47.9575 9.6005 48.2649C10.1009 48.5723 14.2485 45.0151 17.6458 39.5641C18.9565 37.4605 20.0989 35.5626 20.9476 33.9875C22.7291 36.8271 26.1398 40.5702 30.4537 44.2173C32.2088 45.7013 33.7837 47.237 35.2262 48.6437C36.961 50.3354 38.5045 51.8403 39.9398 52.8444C39.3561 53.9915 38.8874 55.1756 38.5486 56.3836C37.2945 55.9509 35.762 55.6104 34.0687 55.2342L34.0678 55.2339C32.4367 54.8717 30.6557 54.4761 28.8301 53.9326C23.1285 52.2356 17.9764 51.6153 15.4719 52.1756C15.105 52.1417 14.6969 52.1901 14.2607 52.6887C14.0868 52.8311 13.9687 52.9955 13.9112 53.1817C13.2669 54.2719 12.5723 56.4857 11.867 60.906C11.1069 66.1589 11.8351 70.6094 12.3172 70.6767C12.7993 70.744 14.7602 66.6775 15.5203 61.4245C15.8135 59.3987 16.0474 57.5843 16.1661 56.111C18.4646 57.6722 22.2984 59.3787 26.7856 60.714C28.6115 61.2575 30.3182 61.8999 31.8814 62.4881C34.5174 63.48 36.7459 64.3187 38.452 64.2717C38.9019 65.9327 39.6498 67.8895 40.7551 69.9528C40.0794 70.121 39.3401 70.3475 38.5469 70.5902C37.4808 70.9168 36.317 71.2733 35.0782 71.5589C31.2121 72.4502 28.0203 73.7834 26.7522 74.9308C26.527 75.0317 26.3047 75.1941 26.217 75.6292C26.1642 75.7678 26.1503 75.9009 26.1784 76.0268C26.1656 76.8696 26.4962 78.3792 27.5513 81.1689C28.8501 84.459 30.7463 86.7952 31.0481 86.6757C31.35 86.5562 31.1401 83.5582 29.8413 80.2684C29.3406 79.0001 28.8754 77.8734 28.4563 76.9818C30.3063 77.13 33.0947 76.8574 36.1387 76.1556C37.3775 75.8699 38.58 75.6805 39.6812 75.5073C41.3452 75.2455 42.7784 75.0198 43.7591 74.5529C45.7753 77.1289 48.1701 79.3851 50.8623 81.2446C50.2702 81.8116 49.6569 82.5927 48.9725 83.4651C48.3714 84.2313 47.7149 85.0675 46.9689 85.8909C44.6362 88.4654 43.0132 91.02 42.6849 92.4733C42.5778 92.6546 42.505 92.877 42.6515 93.2198C42.6832 93.3524 42.7418 93.4594 42.8295 93.538L42.8312 93.5394C43.2471 94.1494 44.2441 95.0653 46.4024 96.5348C48.9905 98.2428 51.5275 98.9696 51.6843 98.7332C51.841 98.4968 50.1817 96.4542 47.5938 94.7462C46.5948 94.0867 45.6927 93.5116 44.943 93.0818C46.3458 92.2642 48.2109 90.6769 50.0435 88.6539C50.7888 87.8311 51.5571 87.0951 52.2607 86.4213L52.261 86.4207C53.3802 85.3488 54.3359 84.4329 54.7794 83.5709C57.2703 84.8302 60.0871 85.8711 63.2624 86.5919C67.0385 85.6322 70.3148 84.4257 73.1511 83.0521C73.4216 84.0631 74.5257 85.1208 75.8637 86.4025C76.5661 87.0753 77.3332 87.81 78.0774 88.6319C79.9059 90.6505 81.7676 92.2346 83.1689 93.0499C82.4183 93.4809 81.5159 94.0574 80.5163 94.7181C77.9253 96.4307 76.2628 98.4763 76.4189 98.7121C76.5751 98.9478 79.1135 98.2173 81.7046 96.5047C83.8593 95.0354 84.8584 94.1192 85.2775 93.5084L85.283 93.5035C85.3721 93.4234 85.4313 93.3144 85.463 93.1792C85.6078 92.8382 85.5352 92.6172 85.429 92.4368C85.1025 90.9837 83.4841 88.4329 81.1566 85.8633C80.4121 85.0414 79.7573 84.2061 79.1574 83.441C78.356 82.419 77.6527 81.5222 76.9657 80.9497C80.119 78.9766 82.5759 76.7861 84.4668 74.5543C85.4438 74.9952 86.8451 75.2133 88.465 75.4656C89.5661 75.637 90.7681 75.8241 92.0065 76.1077C95.0512 76.8046 97.8404 77.0726 99.6905 76.9206C99.2699 77.8131 98.8026 78.941 98.2996 80.2107C96.995 83.5028 96.7799 86.5011 97.0815 86.62C97.3833 86.7389 99.2835 84.3996 100.588 81.1072C101.653 78.3018 101.984 76.7907 101.969 75.9502C101.994 75.8322 101.981 75.708 101.934 75.579C101.849 75.1312 101.623 74.9676 101.394 74.8661C100.128 73.7211 96.9387 72.3939 93.0749 71.5093C91.8367 71.2257 90.6734 70.8713 89.6079 70.5467C88.8919 70.3286 88.22 70.1239 87.5989 69.9632C88.6777 67.94 89.3554 65.9829 89.733 64.2282C91.4374 64.2668 93.6618 63.4266 96.2914 62.433C97.8558 61.8419 99.5636 61.1966 101.391 60.6502C105.88 59.3068 109.717 57.5939 112.018 56.0286C112.135 57.5016 112.365 59.316 112.655 61.3413C113.406 66.5931 115.36 70.6561 115.842 70.5879C116.324 70.5198 117.06 66.0682 116.309 60.8166C115.611 56.3964 114.92 54.184 114.278 53.095C114.221 52.9094 114.103 52.7455 113.93 52.6034C113.495 52.1057 113.087 52.0579 112.72 52.0924C110.216 51.5358 105.063 52.1655 99.3578 53.872C97.5313 54.4187 95.7498 54.8172 94.1181 55.1826H94.1172C92.3705 55.5736 90.7953 55.9259 89.5194 56.3804C89.1897 55.1707 88.7305 53.9949 88.157 52.8627C89.6193 51.8566 91.193 50.3218 92.9664 48.5923C94.4115 47.1831 95.989 45.6448 97.7467 44.1578C102.068 40.5023 105.485 36.7526 107.272 33.9095C108.118 35.4837 109.257 37.3805 110.565 39.4829C113.953 44.9281 118.095 48.4783 118.596 48.1701Z" fill="#262626"/>
<path d="M55.2868 75.7571C58.9834 76.7934 62.8695 74.8055 63.9669 71.3171C65.0643 67.8288 62.9565 64.1613 59.26 63.1252C55.5634 62.0889 51.6773 64.0769 50.5802 67.5649C49.4831 71.0529 51.5903 74.7211 55.2868 75.7571ZM70.9255 75.628C74.6221 76.664 78.5081 74.6764 79.6053 71.1881C80.7024 67.6998 78.5952 64.0322 74.8987 62.9959C71.2021 61.9598 67.316 63.9475 66.2189 67.4358C65.1218 70.9241 67.2289 74.5917 70.9255 75.628Z" fill="#D9D9D9"/>
<path d="M57.5202 72.9541C58.7903 73.3031 60.1255 72.6336 60.5022 71.4593C60.8792 70.2849 60.1554 69.0502 58.8852 68.7013C57.6154 68.3526 56.2803 69.0218 55.9033 70.1961C55.5262 71.3705 56.2504 72.6052 57.5202 72.9541ZM73.0399 72.8671C74.3097 73.216 75.6449 72.5469 76.0219 71.3725C76.3989 70.1982 75.6747 68.9632 74.4049 68.6145C73.1348 68.2656 71.7997 68.9348 71.4229 70.1091C71.0459 71.2835 71.7698 72.5182 73.0399 72.8671Z" fill="#202020"/>
</svg>
