<svg viewBox="0 0 512 512" fill="none" xmlns="http://www.w3.org/2000/svg">
<path d="M255.888 465.023C390.889 465.023 518.563 408.277 500.329 285.324C496.508 259.563 489.274 234.626 479.026 211.299C499.678 197.378 513.717 173.18 510.711 149.63C505.191 106.395 478.722 72.2439 442.267 72.2439C421.42 72.2439 403.703 83.8524 391.399 101.626C353.342 74.4144 307.278 58.1816 255.888 58.1816C204.238 58.1816 158.2 73.9576 120.22 100.916C107.938 83.5436 90.4165 72.2439 69.8486 72.2439C33.3943 72.2439 6.92481 106.395 1.40518 149.63C-1.58502 173.052 12.286 197.115 32.7538 211.071C22.7157 234.269 15.5 259.233 11.4471 285.324C-4.96754 390.994 120.887 465.023 255.888 465.023Z" fill="black"/>
<path d="M257.278 76C207.867 76 162.05 94.2179 125.716 119C113.967 103.03 94.4542 80 74.778 80C39.9042 80 13.778 115 10.278 155C7.41749 176.532 28.4197 200.171 48 213C38.3971 234.325 27.0876 260.821 23.2104 284.806C3.00016 377 119.5 457 257.278 457C386.426 457 509.985 401.5 491.121 284.806C487.244 260.821 475.603 232.825 466 211.5C485.581 198.671 503 183 504 159C505.665 119.035 475.374 79 440.5 79C420.824 79 399.25 102.03 387.5 118C351.166 93.2179 306.689 76 257.278 76Z" fill="#F5B15E"/>
<path d="M286.192 333.042C286.192 353.272 292.067 359.286 299.314 359.286C306.561 359.286 312.436 353.272 312.436 333.042C312.436 313.359 306.561 306.798 299.314 306.798C292.067 306.798 286.192 313.359 286.192 333.042Z" fill="black"/>
<path d="M202.75 333.042C202.75 353.272 208.625 359.286 215.872 359.286C223.119 359.286 228.994 353.272 228.994 333.042C228.994 313.36 223.119 306.799 215.872 306.799C208.625 306.799 202.75 313.36 202.75 333.042Z" fill="black"/>
<circle cx="256.878" cy="401.933" r="13.122" fill="black"/>
<path d="M507.5 268.182C507.5 279.182 509.431 299 490 299C471.409 299 468.5 241.227 438.221 241.227C407.943 241.227 440 319 399.5 319C366.685 319 366 235 334 235C302.991 235 287 271.5 264.5 271.5C243.277 271.5 233.514 234 206 234C181.926 234 180.261 275.5 160 275.5C135.189 275.5 133.343 234.666 108.532 234.666C81.4681 234.666 69.5 291.254 28.1601 291.254C12.9666 291.254 1.00006 278.592 1 263.399C0.999703 182.178 122.764 43.3687 261.737 46.0379C399.316 48.6804 507.5 199.374 507.5 268.182Z" fill="black"/>
<path d="M501.5 269C501.5 279.572 504.886 288 493.5 293.5C477.866 301.052 472.499 232.332 437 232.332C401.5 232.332 429 313 401.5 313C374 313 372 228 334.5 228C299 228 285.5 263.5 265.5 264.5C247.46 265.402 238 225 204.5 225C179 225 171.5 266 160 266C148.5 266 134 221 108.5 221C78.4996 221 54.9372 283.837 27.9997 282C5.99993 280.5 10.0713 266 13.9999 245.5C30.0019 162 145 55 258.5 55C372 55 501.5 196 501.5 269Z" fill="#683915"/>
<path d="M205 98.1816C205 89.3451 212.163 82.1816 221 82.1816H291C299.837 82.1816 307 89.3451 307 98.1816V117.182C307 126.018 299.837 133.182 291 133.182H221C212.163 133.182 205 126.018 205 117.182V98.1816Z" fill="#FAF0E4"/>
<path d="M205 83.1816C205 74.3451 212.163 67.1816 221 67.1816H291C299.837 67.1816 307 74.3451 307 83.1816V98.1816C307 107.018 299.837 114.182 291 114.182H221C212.163 114.182 205 107.018 205 98.1816V83.1816Z" fill="black"/>
<path d="M209 84C209 77.3726 214.373 72 221 72H291C297.627 72 303 77.3726 303 84V98C303 104.627 297.627 110 291 110H221C214.373 110 209 104.627 209 98V84Z" fill="#FFB835"/>
<path d="M205 98.1816C205 89.3451 212.163 82.1816 221 82.1816H291C299.837 82.1816 307 89.3451 307 98.1816V117.182C307 126.018 299.837 133.182 291 133.182H221C212.163 133.182 205 126.018 205 117.182V98.1816Z" fill="black"/>
<path d="M212 92C212 87.5817 215.582 84 220 84H292C296.418 84 300 87.5817 300 92V119C300 123.418 296.418 127 292 127H220C215.582 127 212 123.418 212 119V92Z" fill="#FAF0E4"/>
<path d="M205 83.1816C205 74.3451 212.163 67.1816 221 67.1816H291C299.837 67.1816 307 74.3451 307 83.1816V98.1816C307 107.018 299.837 114.182 291 114.182H221C212.163 114.182 205 107.018 205 98.1816V83.1816Z" fill="black"/>
<path d="M212 86C212 79.3726 217.373 74 224 74H288C294.627 74 300 79.3726 300 86V96C300 102.627 294.627 108 288 108H224C217.373 108 212 102.627 212 96V86Z" fill="#FFB835"/>
</svg>
