<svg viewBox="0 0 512 512" fill="none" xmlns="http://www.w3.org/2000/svg">
<path d="M492.785 117.144C494.843 124.643 442.785 182.644 417.785 175.644C386.135 166.782 375.111 164.008 372.285 139.144C369.785 117.144 383.785 102.968 411.785 94.644C430.286 89.1443 487.434 97.6433 492.785 117.144Z" fill="black"/>
<path d="M484.76 119.532C486.531 125.986 439.179 176.68 417.663 170.656C390.425 163.029 380.937 160.643 378.506 139.244C376.354 120.311 388.403 108.11 412.5 100.947C428.421 96.2138 480.155 102.75 484.76 119.532Z" fill="white"/>
<path d="M476.139 131.983C477.712 135.39 447.725 166.337 432.529 164.515C413.291 162.207 406.604 161.551 403.767 150.02C401.256 139.818 408.924 132.326 425.192 126.763C435.94 123.088 472.049 123.124 476.139 131.983Z" fill="#EAD7C3"/>
<path d="M478.158 133.342C479.021 137.637 459.398 124.632 447.251 124.902C430.632 125.27 417.468 134.311 415.114 134.147C410.869 133.851 420.035 124.32 431.762 121.199C444.464 117.818 475.914 122.175 478.158 133.342Z" fill="black"/>
<path d="M16.0592 117.144C14.0012 124.643 66.0593 182.644 91.0593 175.644C122.709 166.782 133.734 164.008 136.559 139.144C139.059 117.144 125.059 102.968 97.0593 94.644C78.5589 89.1443 21.4107 97.6433 16.0592 117.144Z" fill="black"/>
<path d="M24.0842 119.532C22.3131 125.986 69.6658 176.68 91.1811 170.656C118.419 163.029 127.907 160.643 130.339 139.244C132.49 120.311 120.442 108.11 96.3447 100.947C80.4231 96.2138 28.6898 102.75 24.0842 119.532Z" fill="white"/>
<path d="M32.7055 131.983C31.1325 135.39 61.1198 166.337 76.3157 164.515C95.5536 162.207 102.24 161.551 105.078 150.02C107.588 139.818 99.9203 132.326 83.6529 126.763C72.9046 123.088 36.7959 123.124 32.7055 131.983Z" fill="#EAD7C3"/>
<path d="M30.6864 133.342C29.8232 137.637 49.4463 124.632 61.593 124.902C78.2122 125.27 91.3767 134.311 93.7308 134.147C97.9754 133.851 88.8096 124.32 77.0829 121.199C64.3809 117.818 32.9309 122.175 30.6864 133.342Z" fill="black"/>
<path d="M28 242C28 261.019 34.8312 278.267 45.9178 290.883C39.1152 303.487 35.2048 318.237 35.2048 334C35.2048 375.922 62.8622 410.671 99.0218 416.978C106.304 443.058 128.202 462 154.084 462C163.488 462 172.365 459.499 180.207 455.064C192.984 479.539 216.833 496 244.143 496C268.468 496 290.046 482.941 303.502 462.793C312.197 468.637 322.396 472 333.302 472C362.171 472 386.083 448.433 390.285 417.681C392.279 417.892 394.3 418 396.344 418C431.161 418 459.386 386.66 459.386 348C459.386 342.129 458.735 336.427 457.509 330.979C471.963 316.01 481 294.677 481 271C481 241.033 466.523 214.82 444.911 200.515C447.282 193.511 448.579 185.924 448.579 178C448.579 142.654 422.773 114 390.941 114C390.077 114 389.218 114.021 388.364 114.063C379.311 82.5362 353.55 59.2908 322.639 57.1597C310.894 48.8286 296.939 44 281.968 44C267.138 44 253.305 48.7382 241.629 56.9257C230.141 48.7443 216.477 44 201.815 44C171.599 44 145.621 64.1503 134.187 93.0092C102.808 93.5927 77.5328 122.019 77.5328 157C77.5328 162.594 78.1793 168.021 79.3936 173.193C50.1413 179.26 28 207.759 28 242Z" fill="black"/>
<path d="M35.2051 243.308C35.2051 261.685 41.8054 278.349 52.5173 290.539C45.9446 302.717 42.1664 316.968 42.1664 332.199C42.1664 372.704 68.8891 406.279 103.827 412.373C110.863 437.571 132.02 455.873 157.027 455.873C166.113 455.873 174.691 453.457 182.268 449.171C194.614 472.819 217.656 488.724 244.043 488.724C267.546 488.724 288.395 476.106 301.395 456.639C309.797 462.285 319.651 465.535 330.189 465.535C358.082 465.535 381.186 442.765 385.246 413.052C387.173 413.255 389.126 413.36 391.1 413.36C424.74 413.36 452.011 383.079 452.011 345.726C452.011 340.053 451.383 334.544 450.198 329.28C464.163 314.817 472.895 294.205 472.895 271.328C472.895 242.374 458.907 217.047 438.026 203.225C440.316 196.458 441.569 189.127 441.569 181.471C441.569 147.32 416.636 119.634 385.879 119.634C385.045 119.634 384.215 119.655 383.39 119.695C374.643 89.2338 349.752 66.774 319.886 64.715C308.538 56.6654 295.055 52 280.59 52C266.261 52 252.896 56.5781 241.614 64.4888C230.514 56.5839 217.312 52 203.146 52C173.951 52 148.851 71.4692 137.803 99.3528C107.485 99.9166 83.0638 127.382 83.0638 161.181C83.0638 166.586 83.6884 171.829 84.8617 176.826C56.5981 182.689 35.2051 210.224 35.2051 243.308Z" fill="white"/>
<path d="M375.441 212.776C375.441 287.478 320.494 405.522 254.382 405.522C188.27 405.522 134 283.42 134 208.718C134 134.015 188.27 135.001 254.382 135.001C320.494 135.001 375.441 138.073 375.441 212.776Z" fill="black"/>
<path d="M368 215.802C368 285.727 316.567 396.222 254.684 396.222C192.8 396.222 142 281.929 142 212.003C142 142.078 192.8 143.001 254.684 143.001C316.567 143.001 368 145.877 368 215.802Z" fill="#EAD7C3"/>
<path d="M268.696 368.6C269.668 367.827 272.735 364.567 274 365.048C275.891 365.769 274.922 370.157 272.585 372.369C271.397 373.494 265.949 378.099 264.5 379.009C259.087 382.408 257.764 383.658 257.841 385.597C257.938 388.046 257.841 389.635 257.841 392.266C257.841 395.762 257.841 398.155 257.762 401H252.238C252.159 398.155 252.159 395.762 252.159 392.266C252.159 389.635 252.062 388.046 252.159 385.597C252.236 383.658 250.913 382.408 245.5 379.009C244.051 378.099 238.603 373.494 237.415 372.369C235.078 370.157 234.109 365.769 236 365.048C237.265 364.567 240.332 367.827 241.304 368.6C242.277 369.373 250.5 379.009 255 379.009C259.5 379.009 267.723 369.373 268.696 368.6Z" fill="black"/>
<ellipse cx="290" cy="254" rx="8" ry="16" fill="black"/>
<ellipse cx="8" cy="16" rx="8" ry="16" transform="matrix(-1 0 0 1 227 238)" fill="black"/>
<path d="M184 46C164.776 46 149.071 61.0682 148.052 80.0383C147.371 80.0128 146.687 80 146 80C116.177 80 92 104.177 92 134C92 163.823 116.177 188 146 188C154.864 188 163.229 185.864 170.608 182.08C181.686 201.165 202.344 214 226 214C247.186 214 265.968 203.705 277.617 187.845C283.457 194.094 291.772 198 301 198C313.409 198 324.169 190.937 329.477 180.611C339.123 187.767 351.067 192 364 192C396.032 192 422 166.032 422 134C422 103.312 398.167 78.1904 368 76.1357L368 76C368 52.804 349.196 34 326 34C315.166 34 305.29 38.1021 297.841 44.8377C290.935 26.8043 273.463 14 253 14C229.449 14 209.86 30.9607 205.78 53.3337C199.733 48.7319 192.186 46 184 46Z" fill="black"/>
<path d="M187.198 52.7512C168.877 52.7512 153.897 67.102 152.927 84.5024C124.505 84.5024 99 106.033 99 133.389C99 160.745 119.969 180.764 148.391 180.764C156.838 180.764 166.557 177.18 173.59 173.708C184.147 191.215 205.669 206.467 228.213 206.467C248.404 206.467 266.311 193.296 277.411 178.748C282.977 184.48 292.809 189.332 301.603 189.332C313.429 189.332 323.759 180.659 328.818 171.188C338.011 177.752 347.74 184.292 360.065 184.292C390.592 184.292 415 162.267 415 132.885C415 104.736 391.334 82.8592 362.585 80.9745C362.585 59.6978 347.9 41.6635 325.794 41.6635C315.522 41.6635 304.781 51.0121 297.68 57.1918L297.571 57.2871C290.989 40.7458 272.721 21 253.22 21C230.776 21 214.773 44.3251 210.885 64.8469C205.122 60.6259 194.999 52.7512 187.198 52.7512Z" fill="white"/>
</svg>
