<svg viewBox="0 0 512 512" fill="none" xmlns="http://www.w3.org/2000/svg">
<path d="M502.487 247C520.951 371.5 391.67 465.5 254.97 465.5C118.27 465.5 -9.16759 354 7.45354 247C27.4146 118.5 123.138 17 254.97 17C386.802 17 484.023 122.5 502.487 247Z" fill="black"/>
<path d="M489.357 246.294C506.961 364.999 383.698 454.624 253.361 454.624C123.025 454.624 1.51834 348.314 17.3658 246.294C36.3977 123.775 127.665 27 253.361 27C379.057 27 471.752 127.589 489.357 246.294Z" fill="#FAF5EF"/>
<path d="M256 77.0142C343.178 77.976 417.767 119.75 429.536 217.73C430.924 229.277 432.904 251.015 432.893 262.351C432.831 337.475 380.722 398.153 307.886 412.966C296.082 415.367 284.394 416.111 272.489 417.519C257.05 416.684 241.46 417.667 225.959 416.978C145.517 413.407 82.7336 366.272 74.6084 282.764C72.2498 258.515 73.7518 226.49 79.3451 202.514C98.3174 121.17 171.485 76.0817 256 77.0142Z" fill="#050404"/>
<path d="M256.033 130.462C171.129 130.643 101.104 228.652 130.634 308.411C140.827 335.941 180.567 341.933 221.714 343.265C222.898 365.446 227.971 374.462 232.546 374.462C238.877 369.968 238.035 345.962 241.402 343.616C248.515 342.438 248.261 374.462 254.503 374.462C261.879 374.462 260.99 345.462 266.48 343.265C273.466 343.265 268.448 373.462 276.959 373.462C285.47 373.462 282.635 342.438 286.806 340.248C292.849 340.248 288.34 374.03 297.419 373.462C306.498 372.893 307.602 345.365 307.602 342.438C342.213 339.885 372.854 332.084 382 308.411C412.695 228.957 341.065 130.281 256.033 130.462Z" fill="#FAF5EF"/>
<path d="M276.487 317.231C289.762 322.27 273.356 283.662 262.865 283.463C252.374 283.264 234.901 321.696 248.498 317.231C255.588 314.903 255.407 304.415 262.865 304.613C270.107 304.806 269.712 314.66 276.487 317.231Z" fill="#06070A"/>
<path d="M203.608 253.231C204.512 255.339 203.985 257.754 205.423 259.062C206.848 260.358 206.255 264.301 208.144 266.19C210.088 268.134 208.663 272.022 212.032 275.262C214.985 278.103 214.284 281.986 219.032 282.381C224.547 282.839 223.922 278.213 227.469 273.966C230.175 270.726 232.767 266.19 232.005 261.655C231.57 259.068 234.232 257.767 233.684 253.879C233.328 251.357 235.528 249.343 234.88 246.103C234.232 242.863 233.269 241.352 233.684 238.976C234.249 235.736 231.167 232.487 231.167 229.247C231.167 224.72 229.398 224.72 228.102 220.832C226.129 214.913 222.399 215 219.032 215C214.624 216.935 213.328 217.584 209.44 222.119C206.848 226.008 208.144 229.247 206.2 231.847C205.423 237.031 202.076 238.976 203.608 243.511C205.14 248.046 201.664 248.695 203.608 253.231Z" fill="#06070A"/>
<path d="M319.392 253.231C318.488 255.339 319.015 257.754 317.577 259.062C316.152 260.358 316.745 264.301 314.856 266.19C312.912 268.134 314.337 272.022 310.968 275.262C308.015 278.103 308.716 281.986 303.968 282.381C298.453 282.839 299.078 278.213 295.531 273.966C292.825 270.726 290.233 266.19 290.995 261.655C291.43 259.068 288.768 257.767 289.316 253.879C289.672 251.357 287.472 249.343 288.12 246.103C288.768 242.863 289.731 241.352 289.316 238.976C288.751 235.736 291.833 232.487 291.833 229.247C291.833 224.72 293.602 224.72 294.898 220.832C296.871 214.913 300.601 215 303.968 215C308.376 216.935 309.672 217.584 313.56 222.119C316.152 226.008 314.856 229.247 316.8 231.847C317.577 237.031 320.924 238.976 319.392 243.511C317.86 248.046 321.336 248.695 319.392 253.231Z" fill="#06070A"/>
<path d="M512 261.052C512 308.874 504.016 342.515 481.061 347.641C473.494 349.331 462.259 335.619 456.109 315.515C450.546 297.327 450.121 274.809 450.121 261.052C450.121 228.351 455.258 168.235 481.061 174.463C496.327 178.148 512 206.704 512 261.052Z" fill="black"/>
<path d="M504.016 261.06C504.016 303.176 498.092 334.389 481.061 338.904C475.446 340.392 467.111 326.73 462.548 309.024C458.421 293.007 458.105 273.175 458.105 261.06C458.106 232.261 461.917 178.922 481.061 184.407C492.388 187.652 504.016 213.197 504.016 261.06Z" fill="#FF8956"/>
<path d="M1.52588e-05 261.052C1.52588e-05 308.874 7.98441 342.515 30.9396 347.641C38.5066 349.331 49.741 335.619 55.8908 315.515C61.4545 297.327 61.8792 274.809 61.8792 261.052C61.879 228.351 56.742 168.235 30.9396 174.463C15.6728 178.148 1.52588e-05 206.704 1.52588e-05 261.052Z" fill="black"/>
<path d="M7.98444 261.06C7.98444 303.176 13.9084 334.389 30.9396 338.904C36.5539 340.392 44.889 326.73 49.4518 309.024C53.5797 293.007 53.8948 273.175 53.8948 261.06C53.8947 232.261 50.0834 178.922 30.9396 184.407C19.6127 187.652 7.98444 213.197 7.98444 261.06Z" fill="#FF8956"/>
<path d="M145.276 478.156C128.833 470.074 130.733 428.391 140.638 431.368C153.373 435.197 169.909 441.398 189.425 443.621C241.029 449.5 269.768 451.369 320.599 443.621C342.594 440.268 364.355 434.346 376.241 431.368C384.732 429.242 391.226 465.701 376.241 474.245C335.962 497.214 190.274 500.274 145.276 478.156Z" fill="black"/>
<path d="M153.201 476.5C137.296 470.941 138.319 436.276 145.386 440.398C156.189 446.699 172.924 449.395 191.626 451C241.075 455.244 268.624 457.014 317.38 451C338.478 448.398 361.051 445.138 371.247 439.564C379.149 435.245 383.705 464.058 369.778 471.5C332.351 491.5 196.117 491.501 153.201 476.5Z" fill="#F0C569"/>
</svg>
