<svg viewBox="0 0 256 256" fill="none" xmlns="http://www.w3.org/2000/svg">
<path d="M118.945 77.1537C117.011 65.9191 103.895 58.7994 89.6499 61.2515C88.7573 61.4051 87.8814 61.5926 87.0241 61.812L87.0003 61.6757C87.0003 61.6757 57.3048 66.7874 23.1989 72.658C14.8778 74.0903 31.9922 83.0456 39.5576 86.7949C40.4073 87.216 41.2902 87.5771 42.2009 87.8836C45.2171 90.7843 52.8752 94.7539 57.1041 96.8518C59.9503 98.2638 63.2221 98.9046 66.668 99.0109C67.8402 100.474 72.1576 102.718 74.4538 103.857C79.206 106.214 86.3314 104.277 91.1462 102.418C92.9475 102.412 94.7905 102.256 96.6528 101.935C110.898 99.4834 120.879 88.3882 118.945 77.1537Z" fill="#49633C"/>
</svg>
