<svg viewBox="0 0 256 256" fill="none" xmlns="http://www.w3.org/2000/svg">
<path d="M153.706 51.3748C158.192 46.8881 165.467 46.8881 169.953 51.3748L214.635 96.0563C219.122 100.543 219.122 107.817 214.635 112.304L141.52 185.419C137.033 189.906 129.759 189.906 125.272 185.419L80.5906 140.738C76.1039 136.251 76.1039 128.977 80.5906 124.49L153.706 51.3748Z" fill="#018464"/>
<path d="M142.456 40.365C146.943 35.8783 154.217 35.8783 158.704 40.365L203.386 85.0465C207.872 89.5332 207.872 96.8076 203.386 101.294L130.27 174.409C125.784 178.896 118.509 178.896 114.023 174.409L69.3412 129.728C64.8545 125.241 64.8545 117.967 69.3412 113.48L142.456 40.365Z" fill="#00F79F"/>
<path d="M142.318 46.1092C146.805 41.6225 154.079 41.6225 158.566 46.1092L197.802 85.3451C202.289 89.8318 202.289 97.1062 197.802 101.593L130.569 168.826C126.083 173.312 118.808 173.312 114.321 168.826L75.0855 129.59C70.5988 125.103 70.5988 117.829 75.0855 113.342L142.318 46.1092Z" fill="#018464"/>
<path d="M177.303 89.9252C177.303 102.748 166.909 113.142 154.086 113.142C141.264 113.142 130.869 102.748 130.869 89.9252C130.869 77.1027 141.264 66.708 154.086 66.708C166.909 66.708 177.303 77.1027 177.303 89.9252Z" fill="#00F79F"/>
<path d="M131.98 144.325L129.176 147.129L124.892 142.845L120.646 147.09C120.023 147.713 119.14 148.077 117.998 148.181L116.284 148.337C115.142 148.44 114.181 148.103 113.402 147.324L111.844 145.766L115.116 142.494L115.856 143.234C116.245 143.624 116.518 143.87 116.674 143.974C116.829 144.026 117.115 144.026 117.53 143.974C117.946 143.922 118.244 143.857 118.426 143.78C118.582 143.676 118.894 143.39 119.361 142.923L122.165 140.118L113.207 131.16L109.351 135.016C108.728 135.639 107.845 136.003 106.703 136.107L104.755 136.263C103.769 136.366 102.977 136.12 102.38 135.523L95.0962 128.239C94.3173 127.46 93.9797 126.5 94.0836 125.357L94.2394 123.643C94.3432 122.501 94.7068 121.618 95.3299 120.995L99.1858 117.139L95.291 113.244L98.0953 110.44L101.99 114.335L105.69 110.635C106.313 110.011 107.196 109.648 108.339 109.544L110.052 109.388C111.195 109.284 112.156 109.622 112.935 110.401L114.492 111.959L111.221 115.23L110.481 114.49C110.091 114.101 109.819 113.88 109.663 113.828C109.507 113.724 109.221 113.699 108.806 113.75C108.391 113.802 108.105 113.88 107.949 113.984C107.767 114.062 107.443 114.335 106.975 114.802L104.716 117.061L113.285 125.63L117.375 121.54C117.998 120.917 118.881 120.553 120.023 120.45L121.737 120.294C122.879 120.19 123.84 120.527 124.619 121.306L132.019 128.707C132.798 129.486 133.136 130.446 133.032 131.589L132.876 133.302C132.772 134.445 132.409 135.328 131.786 135.951L127.696 140.041L131.98 144.325ZM118.66 125.708L116.011 128.356L124.97 137.314L127.618 134.666C128.085 134.198 128.371 133.887 128.475 133.731C128.553 133.549 128.618 133.251 128.67 132.835C128.722 132.42 128.709 132.147 128.631 132.017C128.553 131.835 128.319 131.55 127.93 131.16L122.165 125.396C121.776 125.006 121.503 124.786 121.347 124.734C121.192 124.63 120.906 124.604 120.491 124.656C120.075 124.708 119.789 124.786 119.634 124.89C119.452 124.968 119.127 125.24 118.66 125.708ZM99.1858 125.785L104.561 131.16C104.95 131.55 105.223 131.796 105.379 131.9C105.534 131.952 105.82 131.952 106.235 131.9C106.651 131.848 106.949 131.784 107.131 131.706C107.287 131.602 107.599 131.316 108.066 130.849L110.481 128.434L101.912 119.865L99.4974 122.28C99.03 122.747 98.7574 123.072 98.6795 123.254C98.5756 123.41 98.4977 123.695 98.4458 124.111C98.3939 124.526 98.4068 124.825 98.4847 125.007C98.5626 125.136 98.7963 125.396 99.1858 125.785Z" fill="white"/>
<rect x="98.0774" y="84.624" width="28.7223" height="102.023" transform="rotate(-45 98.0774 84.624)" fill="#FEF576"/>
<rect x="159.177" y="145.725" width="28.7223" height="15.6142" transform="rotate(-45 159.177 145.725)" fill="#CEC43B"/>
</svg>
