<svg viewBox="0 0 256 256" fill="none" xmlns="http://www.w3.org/2000/svg">
<path d="M181.953 136.009C194.56 135.62 205.177 148.313 205.669 164.36C205.7 165.366 205.69 166.361 205.642 167.342L205.795 167.338C205.795 167.338 206.819 200.79 207.995 239.209C208.283 248.583 194.791 231.945 189.054 224.544C188.409 223.713 187.823 222.832 187.289 221.909C183.478 219.271 177.482 211.818 174.272 207.681C172.112 204.897 170.694 201.479 169.817 197.752C167.972 196.801 164.586 192.6 162.843 190.354C159.237 185.706 159.762 177.522 160.712 171.869C160.32 169.908 160.082 167.867 160.018 165.769C159.526 149.722 169.347 136.398 181.953 136.009Z" fill="#49633C"/>
</svg>
