<svg viewBox="0 0 256 256" fill="none" xmlns="http://www.w3.org/2000/svg">
<path fill-rule="evenodd" clip-rule="evenodd" d="M127.151 27C140.623 27.0004 151.789 38.9029 153.828 54.4693C184.864 67.0352 202.827 101.149 207.253 138.769C213.718 193.722 177.465 228.184 128.083 228.185C78.7001 228.185 41.6418 192.791 48.913 138.769C54.1799 99.6381 68.5172 65.3719 100.59 53.6525C102.906 38.4882 113.917 27 127.151 27ZM128.101 36.3141C123.986 36.3141 120.65 39.6502 120.65 43.7654C120.65 47.8806 123.986 51.2167 128.101 51.2167C132.216 51.2166 135.552 47.8805 135.552 43.7654C135.552 39.6502 132.216 36.3142 128.101 36.3141Z" fill="#E87832"/>
<path d="M85.2564 105.24C85.2564 90.8363 96.9326 79.1602 111.336 79.1602H144.867C159.27 79.1602 170.946 90.8363 170.946 105.24V138.77C170.946 153.174 159.27 164.85 144.867 164.85H111.336C96.9326 164.85 85.2564 153.174 85.2564 138.77V105.24Z" fill="#5C3D35"/>
<circle cx="87.1191" cy="181.614" r="11.1769" fill="#C04827"/>
<circle cx="87.1187" cy="181.614" r="9.31411" fill="#AE1B16"/>
<circle cx="128.101" cy="194.653" r="11.1769" fill="#C04827"/>
<circle cx="128.101" cy="194.654" r="9.31411" fill="#AE1B16"/>
<path d="M88.9818 108.964C88.9818 94.561 100.658 82.8848 115.061 82.8848H141.141C155.544 82.8848 167.22 94.561 167.22 108.964V135.044C167.22 149.447 155.544 161.123 141.141 161.123H115.061C100.658 161.123 88.9818 149.447 88.9818 135.044V108.964Z" fill="#414141"/>
<circle cx="169.084" cy="181.614" r="11.1769" fill="#C04827"/>
<circle cx="169.083" cy="181.614" r="9.31411" fill="#AE1B16"/>
</svg>
