<svg viewBox="0 0 256 256" fill="none" xmlns="http://www.w3.org/2000/svg">
<path d="M128 215C177.706 215 218 174.706 218 125C218 75.2944 177.706 35 128 35C78.2944 35 38 75.2944 38 125C38 174.706 78.2944 215 128 215Z" fill="#FFCD50"/>
<path d="M102.46 112.837C106.49 112.837 109.757 105.759 109.757 97.0266C109.757 88.2946 106.49 81.2158 102.46 81.2158C98.4293 81.2158 95.1622 88.2946 95.1622 97.0266C95.1622 105.759 98.4293 112.837 102.46 112.837Z" fill="black"/>
<path d="M153.541 112.837C157.571 112.837 160.838 105.759 160.838 97.0266C160.838 88.2946 157.571 81.2158 153.541 81.2158C149.51 81.2158 146.243 88.2946 146.243 97.0266C146.243 105.759 149.51 112.837 153.541 112.837Z" fill="black"/>
</svg>
