<svg viewBox="0 0 256 256" fill="none" xmlns="http://www.w3.org/2000/svg">
<path d="M75.8985 142.275C77.5293 135.926 83.9982 132.101 90.3472 133.731C96.4854 135.308 100.264 141.407 99.0346 147.547L119.697 132.757C123.919 129.735 129.792 130.708 132.814 134.93C134.237 136.919 134.774 139.274 134.503 141.525L134.596 141.458C138.818 138.436 144.69 139.409 147.713 143.63C150.735 147.852 147.656 155.232 143.434 158.254C146.616 157.86 149.918 159.104 152.026 161.821C155.209 165.922 154.464 171.827 150.362 175.011L144.767 179.352C148.235 179.424 151.531 181.418 153.099 184.773C155.298 189.476 153.268 195.071 148.564 197.271L106.178 220.473C93.5124 229.54 72.3382 221.653 63.2719 208.986C54.4228 196.624 56.9909 179.544 68.8965 170.303L75.8985 142.275Z" fill="#F4BD56"/>
<path d="M71.354 216.929C79.1664 219.864 88.8487 221.922 95.0678 221.191C117.791 212.153 142.456 197.488 153.832 190.417C153.307 193.316 151.436 195.927 148.564 197.269L106.179 220.472C96.4739 227.418 81.7751 224.412 71.354 216.929Z" fill="#5C3B0E"/>
<path d="M153.841 169.287C153.438 171.479 152.261 173.535 150.363 175.009L130.7 190.554C130.136 190.992 129.324 190.889 128.886 190.326C128.448 189.762 128.55 188.951 129.113 188.513L153.841 169.287Z" fill="#5C3B0E"/>
<path d="M148.576 150.407C147.98 152.781 146.666 155.127 145.023 156.856L124.153 174.743C123.611 175.207 122.795 175.145 122.331 174.603C121.866 174.062 121.929 173.245 122.471 172.78L148.576 150.407Z" fill="#5C3B0E"/>
<path d="M134.443 138.863C134.589 139.748 134.595 141.458 134.595 141.458L113.13 157.298C112.549 157.714 111.742 157.58 111.327 156.999C110.911 156.418 111.045 155.612 111.625 155.196L134.443 138.863Z" fill="#5C3B0E"/>
<path d="M95.5557 136.61C98.4274 139.336 99.8531 143.42 99.0372 147.528C98.1078 148.565 96.5752 149.459 94.0242 150.998C96.0501 145.46 96.8419 141.308 95.5557 136.61Z" fill="#5C3B0E"/>
</svg>
