<svg viewBox="0 0 256 256" fill="none" xmlns="http://www.w3.org/2000/svg">
<path d="M31 149.85C31 145.824 34.2571 142.561 38.275 142.561H72.225C76.2429 142.561 79.5 145.824 79.5 149.85V171.72C79.5 175.746 76.2429 179.009 72.225 179.009H38.275C34.2571 179.009 31 175.746 31 171.72V149.85Z" fill="#8F8F8F"/>
<path d="M121.004 87.8879C118.008 87.8879 115.324 86.0588 114.267 83.2489C111.17 75.0147 104.758 57.4549 101.203 44.0932C100.493 41.4232 101.425 38.5496 103.84 37.2161C116.512 30.2194 139.073 30.3345 151.886 37.1222C154.45 38.4806 155.395 41.5362 154.564 44.3208C150.844 56.7879 144.655 74.6069 141.673 83.0699C140.651 85.9707 137.917 87.8879 134.847 87.8879H121.004Z" fill="#8F8F8F"/>
<path d="M31 197.841C31 193.815 34.2571 190.551 38.275 190.551H72.225C76.2429 190.551 79.5 193.815 79.5 197.841V219.71C79.5 223.736 76.2429 227 72.225 227H38.275C34.2571 227 31 223.736 31 219.71V197.841Z" fill="#8F8F8F"/>
<path d="M40.1397 89.4398C41.3347 87.1497 44.1879 86.4753 46.418 87.7733L80.6561 107.702C82.4546 108.749 83.3867 110.828 82.9731 112.87L80.2097 126.518C79.751 128.783 77.7634 130.411 75.4566 130.411H35.6361C33.2653 130.411 31.215 128.694 31.076 126.323C30.2999 113.083 35.6192 98.1025 40.1397 89.4398Z" fill="#8F8F8F"/>
<path d="M78.2036 47.0146C80.3773 45.617 83.1902 46.4621 84.4735 48.7079L102.831 80.8319C103.863 82.6384 103.632 84.9031 102.257 86.4636L93.8211 96.0364C92.2937 97.7696 89.759 98.1845 87.7606 97.0284L55.6031 78.4247C53.5494 77.2365 52.6303 74.7202 53.7055 72.6022C59.3021 61.5783 70.4723 51.9856 78.2036 47.0146Z" fill="#8F8F8F"/>
<path d="M225 149.85C225 145.824 221.743 142.561 217.725 142.561H183.775C179.757 142.561 176.5 145.824 176.5 149.85V171.72C176.5 175.746 179.757 179.009 183.775 179.009H217.725C221.743 179.009 225 175.746 225 171.72V149.85Z" fill="#8F8F8F"/>
<path d="M225 197.841C225 193.815 221.743 190.551 217.725 190.551H183.775C179.757 190.551 176.5 193.815 176.5 197.841V219.71C176.5 223.736 179.757 227 183.775 227H217.725C221.743 227 225 223.736 225 219.71V197.841Z" fill="#8F8F8F"/>
<path d="M215.86 89.4398C214.665 87.1497 211.812 86.4753 209.582 87.7733L175.344 107.702C173.545 108.749 172.613 110.828 173.027 112.87L175.79 126.518C176.249 128.783 178.237 130.411 180.543 130.411H220.364C222.735 130.411 224.785 128.694 224.924 126.323C225.7 113.083 220.381 98.1025 215.86 89.4398Z" fill="#8F8F8F"/>
<path d="M177.796 47.0146C175.623 45.617 172.81 46.4621 171.527 48.7079L153.169 80.8319C152.137 82.6384 152.368 84.9031 153.743 86.4636L162.179 96.0364C163.706 97.7696 166.241 98.1845 168.239 97.0284L200.397 78.4247C202.451 77.2365 203.37 74.7202 202.294 72.6022C196.698 61.5783 185.528 51.9856 177.796 47.0146Z" fill="#8F8F8F"/>
</svg>
