
<svg viewBox="0 0 256 256" fill="none" xmlns="http://www.w3.org/2000/svg">
<path d="M128 99.4297C128.579 99.4297 129.156 99.4388 129.731 99.4569C132.202 99.5345 134.062 101.639 134.062 104.116V213.635C134.062 214.977 132.977 216.065 131.637 216.065H124.362C123.023 216.065 121.937 214.977 121.937 213.635V104.116C121.937 101.639 123.798 99.5345 126.269 99.4569C126.844 99.4388 127.421 99.4297 128 99.4297Z" fill="#8F8F8F"/>
<path d="M146.187 109.413C146.187 106.059 149.502 103.727 152.492 105.234C153.731 105.859 154.944 106.53 156.127 107.245C157.513 108.082 158.312 109.61 158.312 111.232V213.635C158.312 214.977 157.227 216.065 155.887 216.065H148.612C147.273 216.065 146.187 214.977 146.187 213.635V109.413Z" fill="#8F8F8F"/>
<path d="M109.813 109.947C109.813 106.593 106.498 104.26 103.508 105.768C102.269 106.393 101.056 107.064 99.8729 107.779C98.4869 108.616 97.6875 110.144 97.6875 111.766V214.169C97.6875 215.511 98.7732 216.599 100.113 216.599H107.387C108.727 216.599 109.813 215.511 109.813 214.169V109.947Z" fill="#8F8F8F"/>
</svg>
