<svg viewBox="0 0 256 256" fill="none" xmlns="http://www.w3.org/2000/svg">
<path d="M175.221 -163.412C202.473 -158.62 237.29 -127.557 237.29 -127.557L141.089 78.9696C141.089 78.9696 95.5253 25.1689 102.729 20.3664C115.335 11.9622 128.883 -171.56 175.221 -163.412Z" fill="#FDEDE8"/>
<path d="M90.22 151.375L75.7983 148.475C75.7983 148.475 62.0814 202.025 59.7092 212.758C65.092 214.672 78.4217 209.175 79.9795 201.676C83.3959 185.228 90.22 151.375 90.22 151.375Z" fill="#38291D"/>
<path d="M77.9101 110.417C93.129 64.9972 112.759 -45.0999 115.125 -7.12501C117.735 34.7805 151 26.8101 171.625 9.12502C187.195 -4.22575 143.275 82.1816 126.16 128.667C116.483 154.953 110.403 180.888 138.41 228.542C148.998 244.194 127.285 249.417 124.285 244.917C123.41 258.917 91.448 248.571 88.7851 247.167C75.0351 239.917 75.2851 228.917 74.2851 223.167C71.8172 208.977 70.9195 203.465 62.3749 195.375C50.4999 183 53.4685 176.882 54.9101 164.417C56.8329 147.792 70.8026 124.98 77.9101 110.417Z" fill="#4F392D"/>
<path d="M63.6177 144.265L77.5846 148.883C77.5846 148.883 62.9596 202.258 59.7096 212.758C54.0846 211.758 45.2652 200.33 47.6231 193.042C52.7941 177.059 63.6177 144.265 63.6177 144.265Z" fill="#523C2E"/>
<path d="M77.7323 112.479C92.9512 67.0591 112.891 -39.3673 115.257 -1.39242C117.867 40.5131 155.736 25.3499 171.308 11.9998C186.878 -1.35101 143.156 84.2248 126.041 130.71C116.364 156.996 110.641 180.904 138.648 228.558C145.666 240.5 128 246.75 128 244.375C128 236.983 118.509 222.883 116.709 223.883C113.561 225.632 128.959 238.508 124.209 245.966C119.099 252.865 102.837 247.586 94.9594 245.966C87.7089 244.476 82.3769 237.008 79.9594 231.883C73.8146 218.856 78.879 205.972 70.3344 197.883C67.8462 195.527 53.2678 179.097 54.7094 166.633C56.9472 147.284 70.6249 127.042 77.7323 112.479Z" fill="#6D503C"/>
</svg>
