<svg viewBox="0 0 256 256" fill="none" xmlns="http://www.w3.org/2000/svg">
<path d="M236.325 -74.8515C255.247 -70.8078 276.36 -45.6627 276.36 -45.6627L178.79 121.228C178.79 121.228 149.009 117.922 154.114 108.319C177.806 63.7449 204.151 -81.7274 236.325 -74.8515Z" fill="#F8D8BF"/>
<path d="M157.2 89.2595C157.94 87.3598 159.937 87.4907 161.925 87.0389C163.913 86.5871 162.139 91.2438 161.392 92.6791C156.167 102.714 161.95 109.193 172.065 110.298C179.23 111.081 188.421 104.132 189.105 103.209C189.947 102.073 191.167 101.409 191.504 102.346C193.23 107.144 188.774 143.195 190.525 150.048C195.377 169.04 203.701 177.404 204.585 183.339C205.104 186.82 209.226 190.735 208.532 192.861C208.206 193.86 207.375 195.025 207.912 195.481C211.963 198.921 216.214 200.31 219.276 203.898C221.244 206.203 220.13 207.729 221.644 209.611C222.256 210.372 223.028 210.946 223.631 211.807C224.915 213.637 224.223 214.846 224.233 216.808C224.252 220.328 224.771 223.805 222.64 224.628C209.244 229.802 190.869 230.374 186.27 230.048C175.031 229.252 162.023 223.383 159.059 220.455C146.61 208.155 138.864 190.1 125.921 177.874C120.48 172.735 117.649 167.773 118.248 160.313C120.02 138.275 154.276 96.7728 157.2 89.2595Z" fill="#424242"/>
<path d="M224.347 213.216C224.347 213.216 204.156 218.898 191.965 218.175C181.009 217.526 173.793 217.795 164.422 212.584C153.72 204.519 143.632 182.824 145.29 182.577C146.949 182.329 148.368 179.775 147.342 178.184C146.374 176.682 143.602 179.139 142.777 177.853C141.952 176.567 140.991 175.178 139.951 173.725C138.911 172.271 138.336 155.066 133.619 153.942C131.238 153.375 129.655 159.54 127.951 156.613C126.246 153.687 123.034 149.345 123.043 147.43C123.079 139.841 117.875 158.307 117.191 160.007C115.462 164.309 119.423 172.429 124.864 177.568C137.807 189.793 145.553 207.849 158.002 220.148C160.966 223.077 175.11 229.787 186.35 230.584C190.948 230.909 209.324 230.338 222.72 225.163C226.729 223.615 224.639 219.771 224.62 216.251C224.618 215.743 224.402 213.638 224.347 213.216Z" fill="white"/>
<path d="M157.092 205.054C157.383 205.427 157.678 205.795 157.974 206.157C155.793 208.303 153.29 210.789 151.396 212.653C150.938 212.07 150.487 211.48 150.038 210.885C151.955 209.309 154.675 207.071 157.092 205.054ZM145.113 183.045C145.13 183.359 145.235 183.821 145.417 184.407C142.98 186.78 139.647 190.096 137.251 192.454C136.825 191.847 136.395 191.243 135.962 190.642C138.512 188.545 142.38 185.362 145.113 183.045ZM146.979 181.441C146.679 181.847 146.304 182.181 145.892 182.383C146.295 182.039 146.66 181.722 146.979 181.441ZM142.777 177.853C142.974 178.159 143.281 178.252 143.648 178.237C139.951 180.033 134.374 182.833 131.179 184.392C130.678 183.783 130.17 183.182 129.654 182.589C131.464 181.863 137.878 179.351 142.521 177.46C142.607 177.593 142.694 177.722 142.777 177.853ZM128.19 156.968C128.585 157.458 128.975 157.495 129.373 157.28C129.381 157.3 129.385 157.313 129.38 157.32C128.969 157.836 125.281 175.791 124.694 177.403C123.923 176.662 123.183 175.862 122.486 175.023C123.555 171.729 127.56 159.734 128.19 156.968Z" fill="#9C9C9C"/>
</svg>
