<svg viewBox="0 0 256 256" fill="none" xmlns="http://www.w3.org/2000/svg">
<path d="M188 98C188 64.8629 161.137 38 128 38C94.8629 38 68 64.8629 68 98L69.2 181.2C69.2 201.082 85.3177 217.2 105.2 217.2C125.082 217.2 135.528 205.419 144.8 188.8C166 150.8 188 131.137 188 98Z" fill="#FBC747"/>
<path d="M128.419 57.2002C152.509 57.2002 179.162 96.7734 168.6 117.2C159.011 135.745 133.716 143.009 129.136 168.101C123.633 161.443 115.312 157.2 106 157.2C98.0742 157.2 90.8663 160.274 85.5031 165.294L84.8 108.227C84.8 80.0459 104.329 57.2003 128.419 57.2002Z" fill="#D7990F"/>
<path d="M85.5233 105.604C97.3034 105.776 106.799 115.378 106.8 127.199C106.8 138.976 97.3743 148.552 85.6551 148.794L85.2 111.827C85.2 109.72 85.3112 107.643 85.5233 105.604Z" fill="black"/>
<path d="M134.682 75.1992C145.728 75.1992 157.882 86.9992 158.682 99.1992C158.887 102.317 150.682 108.036 150.682 99.1992C150.682 90.3627 143.519 83.1992 134.682 83.1992C125.846 83.1992 131.682 75.1992 134.682 75.1992Z" fill="#F6D789"/>
</svg>
