<svg viewBox="0 0 256 256" fill="none" xmlns="http://www.w3.org/2000/svg">
<path d="M116.459 55.0547C118.967 52.5474 123.032 52.5474 125.539 55.0547L132.349 61.8645C134.856 64.3718 134.856 68.4369 132.349 70.9442L130.079 73.2141C127.572 75.7214 123.506 75.7214 120.999 73.2141L114.189 66.4043C111.682 63.897 111.682 59.8319 114.189 57.3246L116.459 55.0547Z" fill="#666979"/>
<path d="M77.9373 48.6344C80.4446 46.1271 84.5097 46.1271 87.017 48.6344L93.8268 55.4441C96.3341 57.9514 96.3341 62.0166 93.8268 64.5239L91.5568 66.7938C89.0496 69.3011 84.9844 69.3011 82.4771 66.7938L75.6674 59.984C73.1601 57.4767 73.1601 53.4116 75.6674 50.9043L77.9373 48.6344Z" fill="#666979"/>
<path d="M116.459 55.0547C118.967 52.5474 123.032 52.5474 125.539 55.0547L132.349 61.8645C134.856 64.3718 134.856 68.4369 132.349 70.9442L130.079 73.2141C127.572 75.7214 123.506 75.7214 120.999 73.2141L114.189 66.4043C111.682 63.897 111.682 59.8319 114.189 57.3246L116.459 55.0547Z" fill="#666979"/>
<path d="M202.213 133.542C204.72 131.035 204.72 126.97 202.213 124.463L195.403 117.653C192.896 115.146 188.831 115.146 186.324 117.653L184.054 119.923C181.546 122.43 181.546 126.495 184.054 129.003L190.864 135.812C193.371 138.32 197.436 138.32 199.943 135.812L202.213 133.542Z" fill="#666979"/>
<path d="M208.633 172.064C211.141 169.557 211.141 165.492 208.633 162.985L201.824 156.175C199.316 153.668 195.251 153.668 192.744 156.175L190.474 158.445C187.967 160.952 187.967 165.017 190.474 167.525L197.284 174.334C199.791 176.842 203.856 176.842 206.364 174.334L208.633 172.064Z" fill="#666979"/>
<path d="M202.213 133.542C204.72 131.035 204.72 126.97 202.213 124.463L195.403 117.653C192.896 115.146 188.831 115.146 186.324 117.653L184.054 119.923C181.546 122.43 181.546 126.495 184.054 129.003L190.864 135.812C193.371 138.32 197.436 138.32 199.943 135.812L202.213 133.542Z" fill="#666979"/>
<path d="M217.98 38.9208C218.287 34.9891 215.011 31.7127 211.079 32.02L191.407 33.5585C189.381 33.7169 187.771 34.7291 186.742 36.1369L144.893 77.985L130.045 73.292L132.767 70.5701L116.877 54.6808L105.9 65.6585L91.0635 60.9687L78.3553 48.2605L71.7524 54.8642L56.4547 50.0278C46.8424 46.9891 39.6138 58.8912 46.742 66.0198L103.08 122.357L83.2591 145.423L51.9154 130.207C42.1457 125.465 33.2212 138.001 40.9001 145.68L63.5616 168.342L54.2634 179.161C49.2054 185.047 49.5369 193.836 55.0244 199.324C60.512 204.811 69.301 205.143 75.1867 200.085L86.0069 190.787L107.411 212.192C115.091 219.871 127.628 210.946 122.885 201.176L108.471 171.482L131.991 151.269L187.574 206.852C194.703 213.981 206.605 206.753 203.566 197.14L198.75 181.905L209.008 171.646L193.118 155.757L191.118 157.759L187.956 147.757L202.588 133.124L186.698 117.235L180.323 123.611L173.939 103.418L214.85 62.5063L214.784 62.4405C215.7 61.4511 216.32 60.1438 216.442 58.5939L217.98 38.9208Z"/>
<path d="M202.739 40.9898L188.319 44.1392C183.977 45.0874 179.467 52.9913 185.544 53.6043C191.621 54.2173 196.202 58.798 196.815 64.8753C197.428 70.9526 205.332 66.4422 206.28 62.1003L209.429 47.68C210.303 43.6784 206.741 40.1159 202.739 40.9898Z" fill="#F5F3F4"/>
<path d="M64.8496 184.401C66.1033 183.148 68.1358 183.148 69.3895 184.401C70.6431 185.655 70.6431 187.687 69.3895 188.941L51.2301 207.1C49.9764 208.354 47.9439 208.354 46.6902 207.1C45.4366 205.847 45.4366 203.814 46.6902 202.561L64.8496 184.401Z" fill="#666979"/>
</svg>
