<svg viewBox="0 0 32 32" xmlns="http://www.w3.org/2000/svg">
<path fill-rule="evenodd" clip-rule="evenodd" d="M4.32889 4.64503C5.22441 1.30288 8.65973 -0.680497 12.0019 0.215028L27.3549 4.32887C30.6971 5.2244 32.6805 8.6597 31.785 12.0019L27.6712 27.355C26.7757 30.697 23.3403 32.6805 19.9981 31.785L4.64503 27.6711C1.30288 26.7755 -0.680498 23.3402 0.215029 19.998L4.32889 4.64503ZM22.8656 17.8396C21.8499 21.6306 17.9534 23.8802 14.1624 22.8645C10.3716 21.8487 8.12185 17.9522 9.13763 14.1613C10.1534 10.3704 14.05 8.1207 17.8408 9.13647C21.6317 10.1522 23.8815 14.0488 22.8656 17.8396Z" />
</svg>
