<svg viewBox="0 0 256 256" fill="none" xmlns="http://www.w3.org/2000/svg">
<path d="M121.869 126.9C126.722 130.027 131.601 130.321 136.639 127.503C144.054 123.354 138.146 113.034 140.557 106.102C142.366 108.814 145.743 108.582 148.093 107.91C150.203 107.307 155.93 103.69 155.628 98.2647C160.753 105.499 169.997 97.7307 170.7 94.6476C172.472 86.8684 174.317 81.0836 164.068 75.3566C169.192 66.3139 164.626 52.1189 158.944 46.7215C154.688 42.6785 148.093 42.803 142.667 43.4058C140.859 41.2959 144.777 31.6504 133.625 26.5259C123.192 21.7322 110.114 28.6356 107.099 41.5968C101.071 40.3911 93.1224 37.1759 87.2055 42.5011C85.2847 44.2298 75.7514 53.6542 82.6842 62.094C76.3543 63.6011 75.4501 73.5481 77.2586 75.9595C71.5315 79.2751 69.723 90.1365 74.2444 94.3463C79.8123 99.5304 86.6027 102.485 93.5354 97.059C99.8653 92.1052 87.8084 109.115 104.989 112.13C110.638 113.121 115.238 110.623 117.348 107.006C119.759 108.814 115.172 122.584 121.869 126.9Z" fill="#727272"/>
<path d="M107.1 41.5969C110.114 28.6359 123.192 21.7323 133.625 26.5258C144.777 31.6503 140.859 41.2961 142.667 43.4061C148.093 42.8032 154.688 42.6788 158.944 46.7217C164.357 51.8637 168.757 64.9897 164.731 74.0393C164.678 74.1491 164.626 74.2596 164.578 74.3708C164.419 74.7052 164.251 75.0348 164.068 75.3568C164.112 75.381 164.154 75.4057 164.197 75.4299C164.148 75.605 164.104 75.7812 164.068 75.9591C163.164 80.4804 167.01 86.1721 163.466 90.7288C159.246 96.1542 156.433 90.569 152.614 92.5373C149.356 94.2171 149.103 97.5497 145.682 98.8672C141.604 100.437 138.295 95.7475 134.529 97.9629C129.943 100.661 130.67 122.675 130.872 127.267C128.903 131.818 122.504 126.926 122.504 126.926C122.504 126.926 123.547 102.158 116.142 98.8672C112.901 97.4267 107.211 101.713 102.277 99.4701C95.6456 96.4558 97.7554 87.7146 95.3441 87.1117C93.5651 86.6673 86.3013 92.5373 80.5744 89.8245C75.901 87.6107 78.4644 81.9875 77.8616 76.8634C77.6937 75.437 77.1542 73.9307 76.4363 72.4692C76.3946 68.5992 78.1438 63.1754 82.6843 62.0943C75.7517 53.6546 85.2847 44.2301 87.2056 42.5012C93.1225 37.176 101.071 40.3912 107.1 41.5969Z" fill="#828282"/>
<path d="M138.615 52.7309C138.615 52.7309 135.469 59.0805 131.024 62.9929C138.206 70.6063 151.225 66.9119 151.274 66.8978C151.257 66.9132 144.756 72.5863 139.82 72.3234C134.844 72.0582 133.867 68.6905 128.73 64.6884C127.368 65.4991 125.927 66.0002 124.448 65.9935C117.349 65.9614 110.582 54.2381 110.582 54.2381C110.582 54.2381 118.17 62.4596 124.448 62.3765C131.14 62.2876 138.615 52.7309 138.615 52.7309Z" fill="#727272"/>
<path d="M82.5501 48.511C83.7561 47.0038 81.6461 50.9225 87.3729 54.5395C93.0999 58.1566 91.9485 57.6768 99.129 60.2665C106.309 62.8561 105.457 62.5833 97.9233 61.1708C90.3896 59.7582 91.2911 60.8696 85.2629 58.458C79.235 56.0463 80.0346 51.6549 82.5501 48.511Z" fill="#727272"/>
</svg>
