<svg viewBox="0 0 256 256" fill="none" xmlns="http://www.w3.org/2000/svg">
<path d="M128.163 119.784C138.327 119.784 146.701 123.505 147.838 128.296L147.875 128.297C147.943 128.405 169.272 162.239 160.136 154.298C159.288 153.561 159.533 151.606 158.327 151.716C157.523 151.79 162.95 158.498 159.131 157.433C152.656 155.625 156.09 151.025 153.302 151.716C150.564 152.396 154.709 158.17 151.493 158.17C146.468 158.17 148.807 153.346 145.664 153.007C138.83 152.269 142.228 145.596 138.428 146.553C128.177 149.135 149.081 175.504 131.192 172.923C113.303 170.341 133.403 159.645 121.946 153.007C118.887 151.234 121.32 145.848 117.323 146.553C112.097 147.475 116.117 155.48 110.489 156.695C103.655 158.171 104.628 164.315 100.64 164.624C94.9104 165.068 105.262 151.716 101.846 150.241C99.5174 149.236 97.2736 157.274 92.5995 160.383C80.9322 168.144 105.436 132.526 108.559 128.023C109.943 123.364 118.192 119.784 128.163 119.784Z" fill="#D1241C"/>
</svg>
