<svg viewBox="0 0 256 256" fill="none" xmlns="http://www.w3.org/2000/svg">
<path d="M142.579 38C149.991 38 156 43.9994 156 51.4V109.6C156 117.001 149.991 123 142.579 123C142.579 123 88.8927 123 68.7608 123C55.5466 123 37.8548 109.247 37.8548 109.247C35.3817 108.012 35.3817 104.488 37.8548 103.253C37.8548 103.253 55.3393 97.875 55.3393 94.525C55.3393 86.15 55.3393 51.4 55.3393 51.4C55.3393 43.9994 61.3484 38.0001 68.7608 38H142.579Z" fill="#F1D496"/>
<path d="M108 97.8047C108 100.566 105.761 102.805 103 102.805C100.239 102.805 98 100.566 98 97.8047C98 95.0433 100.239 92.8047 103 92.8047C105.761 92.8047 108 95.0433 108 97.8047Z" fill="#0A6D1F"/>
<path d="M107 86.805C105 90.805 101 88.805 101 84.805C101 80.805 99 66.805 103 58.805C104 56.805 105 55.8051 107 54.8051C111 52.8051 116 54.8049 118 57.8049C120 60.8049 119 62.8049 117 65.8049C115 68.8049 109 82.805 107 86.805Z" fill="#0A6D1F"/>
</svg>
