<svg viewBox="0 0 256 256" fill="none" xmlns="http://www.w3.org/2000/svg">
<path d="M156.842 197.693C156.842 195.5 156.846 194.77 155.381 194.77H146.618C145.157 194.77 145.157 195.5 145.157 197.693V203.539C145.157 205 146.615 206.462 148.078 206.462H153.921C155.384 206.462 156.842 205 156.842 203.539V197.693Z" fill="#D9D9D9"/>
<path d="M151 148C140.769 148 132 156.769 132 167C132 177.231 146.615 185.269 146.615 194.769H155.385C155.385 185.269 170 177.323 170 167C170 156.677 161.231 148 151 148Z" fill="#FDCE69"/>
<path d="M140.039 156.77C137.115 161.154 137.846 166.27 140.038 168.462C142.295 170.719 147.346 168.462 150.269 164.808C153.192 160.423 153.192 155.308 150.269 153.116C147.346 150.923 142.962 152.385 140.039 156.77Z" fill="#F5F4F0"/>
</svg>
